<svg width="960" height="960" viewBox="0 0 960 960" fill="none" xmlns="http://www.w3.org/2000/svg">
<path fill-rule="evenodd" clip-rule="evenodd" d="M274.25 392.304C276.586 390.159 276.473 386.476 275.957 383.331C274.328 373.427 270.521 364.072 265.872 355.146C264.233 352.002 262.503 348.913 260.718 345.87C240.257 310.9 190.609 248.562 173.438 255.435L172.562 255.735C166.229 261.148 166.846 275.399 180.378 305.372C186.447 318.8 195.86 330.416 205.152 341.883C205.643 342.489 206.133 343.094 206.623 343.7C216.157 355.5 226.399 367.177 238.123 376.7C245.857 383.143 254.495 388.416 263.761 392.349C267.186 393.764 271.521 394.809 274.25 392.304ZM189.645 268.044C188.999 267.374 187.933 267.354 187.263 268C186.593 268.645 186.573 269.712 187.219 270.382C218.257 302.599 244.478 339.132 265.068 378.849C265.496 379.675 266.513 379.998 267.339 379.569C268.165 379.141 268.487 378.125 268.059 377.299C247.32 337.294 220.909 300.495 189.645 268.044Z" fill="url(#paint0_linear_248_1705)"/>
<path fill-rule="evenodd" clip-rule="evenodd" d="M294.454 250.941C275.003 236.41 252.779 226.067 230.387 216.667L229.477 217.285C229.949 217.97 230.409 218.644 230.858 219.318C248.452 245.484 261.089 275.917 265.952 307.394L267.367 307.17C283.051 314.743 298.743 322.319 314.443 329.899C320.844 332.988 328.537 336.061 334.724 332.561C342.787 327.994 341.99 316.109 338.846 307.394C330.592 284.553 313.905 265.472 294.454 250.941ZM261.896 237.61C261.042 237.24 260.05 237.631 259.68 238.484C259.309 239.338 259.7 240.33 260.554 240.7C276.808 247.76 291.328 258.276 303.105 271.518C314.882 284.759 323.633 300.408 328.748 317.374C329.016 318.265 329.956 318.77 330.847 318.501C331.738 318.233 332.242 317.293 331.973 316.402C326.717 298.967 317.725 282.886 305.623 269.279C293.52 255.672 278.599 244.865 261.896 237.61Z" fill="url(#paint1_linear_248_1705)"/>
<path fill-rule="evenodd" clip-rule="evenodd" d="M140 127.805L141.153 126.3C121.714 111.218 103.465 100.055 90.2991 96.2201C80.5621 93.3741 69.2201 94.4851 61.3811 100.92C47.1531 112.61 50.4881 134.988 56.2271 152.488C61.0954 167.338 66.7637 181.913 73.2071 196.15L73.6001 195.971C88.6025 189.527 102.188 180.19 113.581 168.494C124.974 156.797 133.952 142.971 140 127.805ZM79.1399 102.821C78.2128 102.744 77.3986 103.433 77.3213 104.36C77.2441 105.287 77.933 106.101 78.8601 106.179C86.5625 106.821 106.064 111.837 121.324 126.706C121.991 127.356 123.057 127.342 123.706 126.676C124.356 126.009 124.342 124.943 123.676 124.294C107.736 108.763 87.4375 103.513 79.1399 102.821Z" fill="url(#paint2_linear_248_1705)"/>
<defs>
<linearGradient id="paint0_linear_248_1705" x1="222.471" y1="254.91" x2="222.471" y2="393.819" gradientUnits="userSpaceOnUse">
<stop stop-color="#FFB800"/>
<stop offset="1" stop-color="#FF7F0A"/>
</linearGradient>
<linearGradient id="paint1_linear_248_1705" x1="285.28" y1="216.667" x2="285.28" y2="334.117" gradientUnits="userSpaceOnUse">
<stop stop-color="#FFB800"/>
<stop offset="1" stop-color="#FF7F0A"/>
</linearGradient>
<linearGradient id="paint2_linear_248_1705" x1="96.227" y1="94.7432" x2="96.227" y2="196.15" gradientUnits="userSpaceOnUse">
<stop stop-color="#FFB800"/>
<stop offset="1" stop-color="#FF7F0A"/>
</linearGradient>
</defs>
</svg>
