<svg width="960" height="960" viewBox="0 0 960 960" fill="none" xmlns="http://www.w3.org/2000/svg">
<g clip-path="url(#clip0_510_1270)">
<path fill-rule="evenodd" clip-rule="evenodd" d="M507.045 463.063C507.045 463.063 522.134 446.775 541.878 449.377C561.622 451.979 577.178 463.357 584.497 479.635C584.497 479.635 589.523 489.944 595.697 505.335C605.279 529.153 617.63 565.164 618.405 594.028C618.739 605.564 617.205 615.951 612.917 623.972C610.963 627.741 608.217 631.043 604.866 633.651C601.516 636.259 597.641 638.112 593.507 639.082C566.695 646.092 552.047 640.908 544.065 632.897C533.884 622.697 534.503 607.897 534.503 607.897L534.228 607.877C533.856 613.384 532.861 618.832 531.263 624.116C529.273 630.941 525.624 637.167 520.64 642.239C512.001 650.722 498.334 655.601 477.079 652.939C470.16 652.183 463.477 649.982 457.463 646.479C455.441 645.279 453.526 643.908 451.739 642.379C439.732 632.168 434.156 615.93 432.28 598.079C432.28 598.079 404.32 607.897 383.38 597.5C362.44 587.103 369.39 525.565 369.39 525.565L369.38 525.526C374.652 524.092 379.38 522.708 383.38 521.491V521.501L393.925 534.44H405.009C405.009 534.44 441.737 436.027 479.162 441.574C492.377 443.535 501.183 452.4 507.045 463.063Z" fill="#171717"/>
<path d="M734.541 363.264C790.326 367.083 780.969 421.709 780.969 421.709H672.856C672.856 421.709 678.747 359.455 734.541 363.264Z" fill="url(#paint0_linear_510_1270)"/>
<path d="M575.494 391.677L575.553 393.238L425.106 399.305L408.17 472.722L406.992 472.447L371.678 478.593L373.828 441.58L317.2 458.85V458.86L311.457 460.607L295.857 429.622L283.045 404.155C293.619 399.521 304.119 395.454 314.545 391.955C336.948 384.397 359.984 378.867 383.377 375.431C404.646 372.291 426.126 370.808 447.625 370.994C473.698 371.176 499.703 373.699 525.325 378.534C556.654 384.441 575.494 391.677 575.494 391.677Z" fill="url(#paint2_linear_510_1270)"/>
<path d="M525.325 378.522L518.669 212.887L307.725 219.818L314.548 391.953" stroke="#171717" stroke-width="3" stroke-linecap="round" stroke-linejoin="round"/>
<path d="M672.856 421.709C672.856 421.709 678.747 359.455 734.541 363.264C790.335 367.073 780.969 421.709 780.969 421.709" stroke="#171717" stroke-width="3" stroke-linecap="round" stroke-linejoin="round"/>
<path d="M609.385 421.709H672.856H780.969H919.792" stroke="#171717" stroke-width="3" stroke-linecap="round" stroke-linejoin="round"/>
<path d="M74.0918 421.709H261.483" stroke="#171717" stroke-width="3" stroke-linecap="round" stroke-linejoin="round"/>
</g>
<defs>
<linearGradient id="paint0_linear_510_1270" x1="727.208" y1="363.096" x2="727.208" y2="421.709" gradientUnits="userSpaceOnUse">
<stop stop-color="#FFB800"/>
<stop offset="1" stop-color="#FF7F0A"/>
</linearGradient>
<linearGradient id="paint2_linear_510_1270" x1="429.299" y1="370.979" x2="429.299" y2="478.593" gradientUnits="userSpaceOnUse">
<stop stop-color="#FFB800"/>
<stop offset="1" stop-color="#FF7F0A"/>
</linearGradient>
<clipPath id="clip0_510_1270">
<rect width="884" height="744" fill="white" transform="translate(38 108)"/>
</clipPath>
</defs>
</svg>
